<svg width="69" height="69" viewBox="0 0 69 69" fill="none" xmlns="http://www.w3.org/2000/svg">
<rect width="69" height="69" fill="#7AB674"/>
<path d="M44.9877 28.0625H24.7778C24.5317 28.0625 24.2942 28.1544 24.1109 28.3206C23.9275 28.4867 23.8111 28.7155 23.7839 28.9632L22.0061 45.1632C21.9906 45.3047 22.0047 45.448 22.0476 45.5836C22.0904 45.7192 22.1611 45.8442 22.2549 45.9503C22.3487 46.0564 22.4635 46.1412 22.5919 46.1994C22.7203 46.2575 22.8594 46.2875 23 46.2875H46.7655C46.9061 46.2875 47.0452 46.2575 47.1736 46.1994C47.302 46.1412 47.4168 46.0564 47.5106 45.9503C47.6044 45.8442 47.675 45.7192 47.7179 45.5836C47.7608 45.448 47.7749 45.3047 47.7594 45.1632L45.9816 28.9632C45.9544 28.7155 45.838 28.4867 45.6546 28.3206C45.4712 28.1544 45.2338 28.0625 44.9877 28.0625Z" stroke="white" stroke-width="2" stroke-linecap="round" stroke-linejoin="round"/>
<path d="M29.8827 32.1125V28.0625C29.8827 26.7198 30.4095 25.4322 31.3472 24.4828C32.2848 23.5334 33.5566 23 34.8827 23C36.2088 23 37.4805 23.5334 38.4182 24.4828C39.3559 25.4322 39.8827 26.7198 39.8827 28.0625V32.1125" stroke="white" stroke-width="2" stroke-linecap="round" stroke-linejoin="round"/>
</svg>
